<?xml version="1.0" encoding="UTF-8" standalone="no"?>
<!-- Created with Inkscape (http://www.inkscape.org/) -->

<svg
   width="12.486996mm"
   height="34.990219mm"
   viewBox="0 0 12.486996 34.99022"
   version="1.1"
   id="svg2306"
   inkscape:version="1.2.2 (b0a8486, 2022-12-01)"
   sodipodi:docname="border-1.svg"
   xmlns:inkscape="http://www.inkscape.org/namespaces/inkscape"
   xmlns:sodipodi="http://sodipodi.sourceforge.net/DTD/sodipodi-0.dtd"
   xmlns="http://www.w3.org/2000/svg"
   xmlns:svg="http://www.w3.org/2000/svg">
  <sodipodi:namedview
     id="namedview2308"
     pagecolor="#ffffff"
     bordercolor="#000000"
     borderopacity="0.25"
     inkscape:showpageshadow="2"
     inkscape:pageopacity="0.0"
     inkscape:pagecheckerboard="0"
     inkscape:deskcolor="#d1d1d1"
     inkscape:document-units="mm"
     showgrid="false"
     inkscape:zoom="3.3662605"
     inkscape:cx="67.433879"
     inkscape:cy="16.041539"
     inkscape:window-width="3440"
     inkscape:window-height="1440"
     inkscape:window-x="0"
     inkscape:window-y="0"
     inkscape:window-maximized="0"
     inkscape:current-layer="layer1" />
  <defs
     id="defs2303" />
  <g
     inkscape:label="Layer 1"
     inkscape:groupmode="layer"
     id="layer1"
     transform="translate(-23.543338,-108.88239)">
    <path
       d="m 35.204801,129.62086 -7.07e-4,-5.06841 c 0.111482,-1.81015 0.38031,-6.88965 0.79625,-8.23941 l 0.02999,-0.0977 -0.08677,-0.0535 c -0.0067,-0.004 -0.266709,-0.16863 -0.53095,-0.44558 0.08573,-0.48791 0.196151,-0.94899 0.337267,-1.35577 l 0.01729,-0.049 -0.35773,-3.98723 -0.154875,-0.048 c -0.363727,-0.11289 -1.400225,-0.56622 -1.400225,-1.15151 v -0.24236 h -8.135012 v 0.24236 c 0,0.58563 -1.010746,1.02979 -1.399873,1.15151 l -0.155229,0.0483 -0.357727,3.98689 0.01728,0.049 c 0.141116,0.40643 0.250833,0.86577 0.336561,1.3526 -0.263182,0.27942 -0.524246,0.44522 -0.530243,0.44876 l -0.08676,0.0539 0.02999,0.0974 c 0.415081,1.34808 0.684063,6.41905 0.795544,8.2317 l 7.07e-4,5.06909 c -0.111482,1.81016 -0.380311,5.47848 -0.796251,6.82794 l -0.02999,0.0977 0.08676,0.0539 c 0.0061,0.003 0.266708,0.16796 0.530949,0.44526 -0.08574,0.48789 -0.195798,0.94865 -0.337267,1.35576 l -0.01728,0.0494 0.357727,3.98689 0.155229,0.048 c 0.389127,0.12171 1.399873,0.56586 1.399873,1.1515 v 0.24236 h 8.135001 v -0.24236 c 0,-0.58564 1.010747,-1.02979 1.400226,-1.1515 l 0.154876,-0.048 0.357732,-3.98689 -0.01729,-0.0494 c -0.140765,-0.40607 -0.250833,-0.86578 -0.336562,-1.35262 0.263182,-0.2794 0.524247,-0.44519 0.530245,-0.4484 l 0.08676,-0.0542 -0.02999,-0.0975 c -0.41498,-1.34777 -0.684062,-5.0079 -0.795544,-6.82088 m -0.552824,8.9764 c 0.0018,0.005 0.06422,0.15205 0.14641,0.37112 0.03634,0.32812 0.06457,1.01005 -0.191918,1.76045 -0.425114,1.24324 -1.464788,2.15273 -3.012479,2.65863 h -3.625269 c -3.324346,-1.08166 -3.288009,-3.64467 -3.196637,-4.41025 0.08537,-0.23036 0.152759,-0.38983 0.156991,-0.40146 0.128063,-0.54576 -0.05008,-1.0178 -0.30199,-1.38437 0.487206,-2.67062 0.239195,-6.07186 0.226847,-6.22531 l -7.1e-4,-9.15904 c 0.01307,-0.16897 0.26142,-3.57659 -0.227192,-6.24828 0.250833,-0.36971 0.427226,-0.84669 0.295989,-1.40128 -0.0018,-0.005 -0.06457,-0.1524 -0.14676,-0.37113 -0.03634,-0.32774 -0.06457,-1.00968 0.191918,-1.76042 0.425464,-1.24323 1.464788,-2.1531 3.012833,-2.65865 h 3.624924 c 3.324349,1.08168 3.288011,3.64468 3.196638,4.41024 -0.08537,0.23038 -0.152757,0.38985 -0.156991,0.40149 -0.128064,0.54578 0.05009,1.01779 0.302339,1.38435 -0.487554,2.67097 -0.239542,6.07186 -0.227194,6.22534 l 7.03e-4,9.15938 c -0.01302,0.16862 -0.261414,3.57622 0.227198,6.24826 -0.25048,0.36972 -0.426876,0.84668 -0.29564,1.40093 m 1.067536,-22.267 c -0.2466,0.87175 -0.438517,2.49175 -0.576108,4.03451 -0.02576,-1.15433 -0.0085,-2.83467 0.216615,-4.32661 0.14535,0.13511 0.277644,0.2346 0.359493,0.2921 m -0.824471,-2.06876 c 0.01235,-0.0288 0.163693,-0.38455 0.306222,-0.82484 l 0.07299,0.81461 c -0.09771,0.2893 -0.179921,0.60221 -0.250833,0.92854 -0.135826,-0.26848 -0.20744,-0.57999 -0.128416,-0.91831 m 0.05997,-3.57554 0.178864,1.99574 c -0.03598,0.17218 -0.0843,0.35103 -0.137236,0.52353 -0.01129,-0.3482 -0.06667,-0.7779 -0.223668,-1.23617 -0.290347,-0.84951 -0.993459,-1.92587 -2.657925,-2.60184 h 1.2831 c 0.180628,0.74262 1.155741,1.17164 1.556865,1.31874 m -8.779551,-1.31874 h 1.281334 c -2.399684,0.97406 -2.837849,2.80119 -2.873832,3.85637 -0.05503,-0.17746 -0.10584,-0.36336 -0.143234,-0.54155 l 0.178864,-1.99608 c 0.401125,-0.1471 1.376592,-0.57612 1.556868,-1.31874 m -1.876142,4.88405 0.07301,-0.81461 c 0.141114,0.43606 0.289995,0.78499 0.299166,0.80298 0.08043,0.3436 0.01094,0.65899 -0.123478,0.93066 -0.07019,-0.32316 -0.15205,-0.63292 -0.248716,-0.91903 m -0.08608,1.78582 c 0.225083,1.48983 0.242724,3.16912 0.216968,4.32696 -0.137944,-1.54239 -0.329505,-3.16204 -0.576107,-4.03379 0.08219,-0.0576 0.214498,-0.15735 0.359139,-0.29317 m -0.359138,20.38732 c 0.246602,-0.87175 0.43852,-2.49143 0.576107,-4.03417 0.02576,1.15396 0.0085,2.83466 -0.216614,4.32628 -0.144995,-0.13513 -0.277294,-0.23498 -0.359493,-0.29211 m 0.824473,2.06875 c -0.01235,0.0292 -0.163696,0.38455 -0.306224,0.8248 l -0.073,-0.81424 c 0.09771,-0.28927 0.180274,-0.60186 0.250832,-0.92852 0.13618,0.26882 0.207443,0.57999 0.128418,0.91796 m -0.05997,3.57552 -0.178865,-1.99573 c 0.03597,-0.17144 0.08467,-0.35067 0.137238,-0.5232 0.01129,0.34822 0.06667,0.77757 0.223667,1.23584 0.290348,0.85023 0.993462,1.92587 2.657929,2.60183 h -1.283103 c -0.180277,-0.74263 -1.155743,-1.17163 -1.556869,-1.31874 m 8.779553,1.31874 h -1.281323 c 2.399685,-0.9737 2.837851,-2.80116 2.874188,-3.85637 0.05467,0.17781 0.105484,0.36338 0.142882,0.54156 l -0.178867,1.99607 c -0.401121,0.14711 -1.376236,0.57611 -1.556865,1.31874 m 1.87614,-4.8837 -0.07303,0.81424 c -0.141116,-0.43638 -0.289995,-0.78425 -0.298815,-0.80295 -0.0808,-0.3436 -0.01129,-0.65863 0.123125,-0.93064 0.07019,0.32316 0.152051,0.63291 0.248715,0.91935 m 0.08607,-1.78615 c -0.22508,-1.48947 -0.242718,-3.16876 -0.216966,-4.32662 0.137943,1.54239 0.329508,3.16171 0.576109,4.03346 -0.08187,0.0575 -0.214142,0.15733 -0.359143,0.29316"
       style="fill:#231f20;fill-opacity:1;fill-rule:nonzero;stroke:none;stroke-width:0.35279"
       id="path702"
       sodipodi:nodetypes="ccccccccccsccscccccccsccccccccccsccscccccccscccccccccccccccccccccccccccccccccccccccccccccccccccccccccccccccccccccccccccccccccccccc" />
  </g>
</svg>
