<?xml version="1.0" encoding="UTF-8" standalone="no"?>
<!-- Created with Inkscape (http://www.inkscape.org/) -->

<svg
   width="18.786217mm"
   height="22.02956mm"
   viewBox="0 0 18.786217 22.02956"
   version="1.1"
   id="svg6576"
   sodipodi:docname="border-ability-constitution.svg"
   inkscape:version="1.2.2 (b0a8486, 2022-12-01)"
   xmlns:inkscape="http://www.inkscape.org/namespaces/inkscape"
   xmlns:sodipodi="http://sodipodi.sourceforge.net/DTD/sodipodi-0.dtd"
   xmlns="http://www.w3.org/2000/svg"
   xmlns:svg="http://www.w3.org/2000/svg">
  <sodipodi:namedview
     id="namedview6578"
     pagecolor="#ffffff"
     bordercolor="#000000"
     borderopacity="0.25"
     inkscape:showpageshadow="2"
     inkscape:pageopacity="0.0"
     inkscape:pagecheckerboard="0"
     inkscape:deskcolor="#d1d1d1"
     inkscape:document-units="mm"
     showgrid="false"
     inkscape:zoom="0.75455247"
     inkscape:cx="-54.336844"
     inkscape:cy="-13.915533"
     inkscape:window-width="1390"
     inkscape:window-height="1205"
     inkscape:window-x="1130"
     inkscape:window-y="142"
     inkscape:window-maximized="0"
     inkscape:current-layer="g326" />
  <defs
     id="defs6573">
    <clipPath
       clipPathUnits="userSpaceOnUse"
       id="clipPath330">
      <path
         d="M 0,0 H 612 V 792 H 0 Z"
         id="path328" />
    </clipPath>
  </defs>
  <g
     inkscape:label="Layer 1"
     inkscape:groupmode="layer"
     id="layer1"
     transform="translate(-59.506319,-88.713498)">
    <g
       id="g326"
       clip-path="url(#clipPath330)"
       transform="matrix(0.35277777,0,0,-0.35277777,48.724575,267.75506)">
      <g
         id="g388"
         transform="translate(31.3208,487.0488)">
        <path
           d="m 0,0 c 0,0 2.231,-11.25 1.5,-21.5 0,0 -3.125,-3.125 0.25,-8.187 l -0.28,-5.472 h 24.397 24.398 l -0.281,5.472 c 3.375,5.062 0.25,8.187 0.25,8.187 -0.731,10.25 1.5,21.5 1.5,21.5 l -1.437,1.062 c 0.312,0.563 1.098,4.029 1.098,4.029 L 50.443,16.636 C 47.59,15.459 45.75,19.775 45.75,19.775 H 25.867 5.984 c 0,0 -1.839,-4.316 -4.693,-3.139 L 0.34,5.091 c 0,0 0.785,-3.466 1.097,-4.029 z"
           style="fill:#ffffff;fill-opacity:1;fill-rule:nonzero;stroke:none"
           id="path390" />
      </g>
      <g
         id="g392"
         transform="translate(57.188,463.9922)">
        <path
           d="m 0,0 c 6.731,0 12.208,-3.695 12.208,-8.238 0,-4.543 -5.477,-8.24 -12.208,-8.24 -6.731,0 -12.208,3.697 -12.208,8.24 C -12.208,-3.695 -6.731,0 0,0"
           style="fill:#ffffff;fill-opacity:1;fill-rule:nonzero;stroke:none"
           id="path394" />
      </g>
      <g
         id="g396"
         transform="translate(57.188,448.7646)">
        <path
           d="m 0,0 c -5.94,0 -10.958,3.2 -10.958,6.989 0,3.788 5.018,6.989 10.958,6.989 5.94,0 10.958,-3.201 10.958,-6.989 C 10.958,3.2 5.94,0 0,0 m 0,-2.5 c 7.434,0 13.458,4.249 13.458,9.489 0,5.24 -6.024,9.489 -13.458,9.489 -7.433,0 -13.458,-4.249 -13.458,-9.489 0,-5.24 6.025,-9.489 13.458,-9.489"
           style="fill:#dedfdf;fill-opacity:1;fill-rule:nonzero;stroke:none"
           id="path398" />
      </g>
      <g
         id="g400"
         transform="translate(33.5347,498.5674)">
        <path
           d="m 0,0 c -0.641,1.55 -0.945,4.838 -0.945,4.838 l 0.023,0.279 0.412,0.128 c 0.968,0.3 3.725,1.506 3.725,3.063 V 8.952 H 44.093 V 8.308 c 0,-1.557 2.757,-2.763 3.723,-3.063 l 0.413,-0.128 0.025,-0.279 c 0,0 -0.305,-3.288 -0.946,-4.838 L 47.02,4.154 C 45.953,4.546 43.359,5.687 42.879,7.662 H 4.428 C 3.947,5.687 1.354,4.546 0.287,4.154 Z m -1.445,-43.269 v -0.002 c 0.055,0 0.12,-0.005 0.179,-0.009 0.053,0.732 0.107,1.561 0.157,2.469 -0.748,1.168 -1.327,2.482 -1.45,3.869 -0.152,1.724 0.426,3.321 1.7,4.754 0,0.253 -0.004,0.511 -0.006,0.767 0,0 -0.907,16.93 -1.739,19.633 l -0.108,0.348 0.31,0.191 c 0.013,0.009 0.736,0.467 1.445,1.225 0,0 0.746,0.667 1.023,1.471 0.306,0.658 0.459,1.406 0.273,2.211 -0.03,0.071 -0.38,0.892 -0.734,1.948 l -0.167,-1.875 c 0.175,-0.518 0.326,-1.072 0.467,-1.638 -0.198,-0.402 -0.569,-1.038 -1.028,-1.33 -0.196,0.949 -0.42,1.862 -0.703,2.678 l -0.047,0.132 0.811,9.053 C -1.072,1.272 -0.15,-1.667 -0.15,-1.667 0.156,-3.518 1.193,-5.956 1.227,-6.05 1.59,-7.587 1.06,-8.909 0.339,-9.917 1.422,-16.008 0.368,-37.738 0.23,-40.265 c -0.501,0.64 -0.958,1.67 -1.205,2.286 0.051,1.316 0.086,2.738 0.104,4.212 -0.59,-0.968 -0.848,-2.003 -0.752,-3.091 0.109,-1.257 0.66,-2.471 1.377,-3.556 0.035,-0.054 0.068,-0.101 0.1,-0.148 0.097,-0.143 0.197,-0.283 0.298,-0.421 0.024,-0.03 0.035,-0.046 0.035,-0.046 v -0.002 c 1.578,-2.115 3.624,-3.611 3.778,-3.722 0.777,-0.409 1.546,-0.886 2.292,-1.387 h 0.011 l 0.166,-0.117 c 0.52,-0.355 1.023,-0.721 1.507,-1.088 l 0.12,-0.084 H 8.053 6.47 5.24 2.261 c -0.081,-0.522 -0.077,-2.059 2.581,-2.619 0,0 0.381,-1.329 4.324,-2.255 3.943,-0.925 0.811,3.927 -0.389,4.874 l 0.012,0.01 -1.621,1.279 h 1.521 c -0.344,1.02 -0.523,1.931 -0.579,2.737 -0.54,-0.737 -1.694,-1.845 -3.424,-1.182 0.393,-0.111 2.001,-0.346 3.448,2.686 l 0.005,-0.014 c 0.289,2.405 1.656,3.497 1.656,3.497 -1.419,-2.79 -1.091,-5.267 -0.629,-6.763 0.008,-0.011 0.295,-0.411 0.877,-0.42 -0.352,0.887 -0.551,1.819 -0.551,2.785 0,5.62 6.354,10.192 14.162,10.192 7.809,0 14.162,-4.572 14.162,-10.192 0,-0.966 -0.201,-1.898 -0.551,-2.785 0.581,0.009 0.869,0.409 0.878,0.42 0.461,1.496 0.789,3.973 -0.63,6.763 0,0 1.368,-1.092 1.656,-3.497 l 0.005,0.014 c 1.445,-3.032 3.055,-2.797 3.449,-2.686 -1.73,-0.663 -2.885,0.445 -3.426,1.182 -0.055,-0.806 -0.234,-1.717 -0.578,-2.737 h 1.52 l -1.633,-1.289 c -1.198,-0.947 -4.33,-5.799 -0.388,-4.874 3.943,0.926 4.324,2.255 4.324,2.255 2.66,0.56 2.663,2.097 2.582,2.619 h -2.973 -1.213 -1.584 -0.006 l 0.117,0.084 c 0.486,0.367 0.989,0.733 1.51,1.088 l 0.165,0.117 h 0.012 c 0.745,0.501 1.514,0.978 2.292,1.387 0.153,0.111 2.199,1.607 3.775,3.722 v 0.002 c 0,0 0.014,0.016 0.035,0.046 0.102,0.138 0.203,0.278 0.299,0.421 0.033,0.047 0.066,0.094 0.102,0.148 0.715,1.085 1.266,2.299 1.377,3.556 0.094,1.088 -0.162,2.123 -0.754,3.091 0.017,-1.474 0.053,-2.896 0.105,-4.212 -0.248,-0.616 -0.705,-1.646 -1.206,-2.286 -0.137,2.527 -1.191,24.257 -0.108,30.348 -0.72,1.008 -1.25,2.33 -0.888,3.867 0.033,0.094 1.07,2.532 1.376,4.383 0,0 0.922,2.939 0.912,4.293 l 0.812,-9.053 -0.046,-0.132 c -0.283,-0.816 -0.508,-1.729 -0.704,-2.678 -0.46,0.292 -0.829,0.928 -1.028,1.33 0.141,0.566 0.292,1.12 0.467,1.638 l -0.169,1.875 C 47.348,-5.45 47,-6.271 46.969,-6.342 c -0.188,-0.805 -0.033,-1.553 0.273,-2.211 0.277,-0.804 1.022,-1.471 1.022,-1.471 0.711,-0.758 1.431,-1.216 1.447,-1.225 l 0.309,-0.191 -0.108,-0.348 c -0.832,-2.703 -1.74,-19.633 -1.74,-19.633 0,-0.256 -0.004,-0.514 -0.004,-0.767 1.273,-1.433 1.85,-3.03 1.698,-4.754 -0.123,-1.387 -0.701,-2.701 -1.45,-3.869 0.051,-0.908 0.105,-1.737 0.156,-2.469 0.061,0.004 0.126,0.009 0.182,0.009 l -0.002,0.002 c 0.979,0.079 1.837,-0.463 1.42,-1.148 -0.415,-0.684 -1.125,-0.759 -1.125,-0.759 0,0 0.267,0.172 0.489,0.564 0.111,0.196 0.025,0.288 -0.089,0.331 -0.084,0.014 -0.164,0.028 -0.252,0.037 h -0.002 c -0.181,0.016 -0.368,0.02 -0.55,0.018 0.117,-1.52 0.211,-2.44 0.216,-2.49 l 0.077,-0.713 h -2.567 c -1.196,-4.562 -9.523,-6.065 -9.523,-6.065 -1.526,1.347 -3.222,0.944 -3.222,0.944 1.356,0.721 1.696,2.289 1.696,2.289 l -1.882,-0.447 c -0.805,-0.201 -1.876,-0.636 -2.513,-1.595 l -5.188,-0.593 0.043,0.017 c -0.696,-0.075 -1.403,-0.127 -2.126,-0.127 -0.724,0 -1.43,0.052 -2.126,0.127 l 0.042,-0.017 -5.187,0.593 c -0.645,0.968 -1.731,1.404 -2.537,1.602 v -0.007 l -1.881,0.447 c 0,0 0.338,-1.568 1.695,-2.289 0,0 -1.697,0.403 -3.222,-0.944 0,0 -8.327,1.503 -9.524,6.065 h -2.541 l 0.075,0.713 c 0.006,0.05 0.101,0.97 0.218,2.49 -0.184,0.002 -0.371,-0.002 -0.552,-0.018 h -0.002 c -0.088,-0.009 -0.169,-0.023 -0.251,-0.037 -0.114,-0.043 -0.201,-0.135 -0.09,-0.331 0.221,-0.392 0.49,-0.564 0.49,-0.564 0,0 -0.709,0.075 -1.126,0.759 -0.415,0.685 0.441,1.227 1.42,1.148 m 48.949,19.948 c 0.353,3.721 0.824,9.337 1.415,11.475 -0.211,0.151 -0.511,0.383 -0.84,0.685 -0.515,-3.486 -0.608,-9.217 -0.575,-12.16 m -1.412,-20.307 c 0.404,0.109 0.797,0.18 1.184,0.228 -0.022,0.305 -0.046,0.634 -0.067,0.974 -0.374,-0.438 -0.754,-0.844 -1.117,-1.202 m -3.299,-2.512 h 4.712 c -0.042,0.436 -0.098,1.057 -0.157,1.818 -1.41,-0.169 -3.002,-0.884 -4.555,-1.818 m -6.529,-1.289 c -0.508,-0.717 -1.125,-1.384 -1.844,-1.991 1.338,-0.042 2.428,1.194 2.987,1.991 z M 10.9,-42.814 c 0,-1.178 0.342,-2.299 0.956,-3.328 0.123,-0.205 0.26,-0.404 0.408,-0.601 0.015,-0.022 0.029,-0.045 0.045,-0.068 0.16,-0.21 0.332,-0.417 0.513,-0.618 2.252,-2.497 6.259,-4.17 10.832,-4.17 4.573,0 8.58,1.673 10.831,4.17 0.183,0.201 0.354,0.408 0.513,0.618 0.018,0.023 0.031,0.046 0.047,0.068 0.146,0.197 0.283,0.396 0.406,0.601 0.613,1.028 0.957,2.15 0.957,3.328 0,4.843 -5.721,8.784 -12.754,8.784 -7.033,0 -12.754,-3.941 -12.754,-8.784 m 1.991,-6.607 c -0.721,0.607 -1.338,1.275 -1.848,1.992 H 9.877 c 0.562,-0.801 1.663,-2.05 3.014,-1.992 M 0.031,-43.4 c 0.387,-0.048 0.781,-0.119 1.186,-0.228 -0.365,0.358 -0.744,0.764 -1.118,1.202 -0.021,-0.34 -0.044,-0.669 -0.068,-0.974 m -0.228,-2.74 h 4.711 c -1.552,0.934 -3.145,1.649 -4.553,1.818 -0.061,-0.761 -0.117,-1.382 -0.158,-1.818 m 0.002,22.819 c 0.033,2.943 -0.062,8.674 -0.576,12.16 -0.329,-0.302 -0.629,-0.534 -0.84,-0.685 0.59,-2.138 1.06,-7.754 1.416,-11.475"
           style="fill:#000000;fill-opacity:1;fill-rule:nonzero;stroke:none"
           id="path402" />
      </g>
    </g>
  </g>
</svg>
