<?xml version="1.0" encoding="UTF-8" standalone="no"?>
<!-- Created with Inkscape (http://www.inkscape.org/) -->

<svg
   width="18.786161mm"
   height="21.858076mm"
   viewBox="0 0 18.786161 21.858076"
   version="1.1"
   id="svg6576"
   sodipodi:docname="border-ability-wisdom.svg"
   inkscape:version="1.2.2 (b0a8486, 2022-12-01)"
   xmlns:inkscape="http://www.inkscape.org/namespaces/inkscape"
   xmlns:sodipodi="http://sodipodi.sourceforge.net/DTD/sodipodi-0.dtd"
   xmlns="http://www.w3.org/2000/svg"
   xmlns:svg="http://www.w3.org/2000/svg">
  <sodipodi:namedview
     id="namedview6578"
     pagecolor="#ffffff"
     bordercolor="#000000"
     borderopacity="0.25"
     inkscape:showpageshadow="2"
     inkscape:pageopacity="0.0"
     inkscape:pagecheckerboard="0"
     inkscape:deskcolor="#d1d1d1"
     inkscape:document-units="mm"
     showgrid="false"
     inkscape:zoom="0.75455247"
     inkscape:cx="335.29809"
     inkscape:cy="31.144289"
     inkscape:window-width="1390"
     inkscape:window-height="1205"
     inkscape:window-x="1130"
     inkscape:window-y="142"
     inkscape:window-maximized="0"
     inkscape:current-layer="g326" />
  <defs
     id="defs6573">
    <clipPath
       clipPathUnits="userSpaceOnUse"
       id="clipPath330">
      <path
         d="M 0,0 H 612 V 792 H 0 Z"
         id="path328" />
    </clipPath>
  </defs>
  <g
     inkscape:label="Layer 1"
     inkscape:groupmode="layer"
     id="layer1"
     transform="translate(-59.506319,-139.3104)">
    <g
       id="g326"
       clip-path="url(#clipPath330)"
       transform="matrix(0.35277777,0,0,-0.35277777,48.724575,267.75506)">
      <g
         id="g420"
         transform="translate(31.321,343.6223)">
        <path
           d="m 0,0 c 0,0 2.231,-11.25 1.5,-21.5 0,0 -3.125,-3.125 0.25,-8.187 l -0.28,-5.472 h 24.397 24.398 l -0.281,5.472 c 3.375,5.062 0.25,8.187 0.25,8.187 -0.731,10.25 1.5,21.5 1.5,21.5 l -1.437,1.062 c 0.312,0.563 1.098,4.029 1.098,4.029 L 50.443,16.636 C 47.59,15.459 45.75,19.775 45.75,19.775 H 25.867 5.984 c 0,0 -1.839,-4.316 -4.693,-3.139 L 0.34,5.091 c 0,0 0.785,-3.466 1.097,-4.029 z"
           style="fill:#ffffff;fill-opacity:1;fill-rule:nonzero;stroke:none"
           id="path422" />
      </g>
      <g
         id="g424"
         transform="translate(57.1882,320.5657)">
        <path
           d="m 0,0 c 6.731,0 12.208,-3.695 12.208,-8.238 0,-4.543 -5.477,-8.24 -12.208,-8.24 -6.731,0 -12.208,3.697 -12.208,8.24 C -12.208,-3.695 -6.731,0 0,0"
           style="fill:#ffffff;fill-opacity:1;fill-rule:nonzero;stroke:none"
           id="path426" />
      </g>
      <g
         id="g428"
         transform="translate(57.1882,305.3381)">
        <path
           d="m 0,0 c -5.939,0 -10.958,3.2 -10.958,6.989 0,3.788 5.019,6.989 10.958,6.989 5.939,0 10.958,-3.201 10.958,-6.989 C 10.958,3.2 5.939,0 0,0 m 0,-2.5 c 7.434,0 13.458,4.249 13.458,9.489 0,5.24 -6.024,9.489 -13.458,9.489 -7.433,0 -13.458,-4.249 -13.458,-9.489 0,-5.24 6.025,-9.489 13.458,-9.489"
           style="fill:#dedfdf;fill-opacity:1;fill-rule:nonzero;stroke:none"
           id="path430" />
      </g>
      <g
         id="g432"
         transform="translate(79.6169,349.0911)">
        <path
           d="m 0,0 c -0.363,-1.538 0.166,-2.859 0.886,-3.867 -1.083,-6.09 -0.029,-27.821 0.108,-30.346 0.503,0.638 0.959,1.67 1.206,2.283 -0.051,1.317 -0.087,2.739 -0.104,4.213 0.591,-0.969 0.848,-2.002 0.753,-3.091 -0.11,-1.256 -0.661,-2.47 -1.377,-3.555 -0.035,-0.053 -0.068,-0.101 -0.101,-0.15 -0.097,-0.141 -0.197,-0.281 -0.299,-0.421 -0.021,-0.029 -0.034,-0.045 -0.034,-0.045 v -0.002 c -1.578,-2.116 -3.623,-3.611 -3.777,-3.723 -0.777,-0.409 -1.546,-0.886 -2.291,-1.385 h -0.012 l -0.166,-0.119 c -0.521,-0.354 -1.023,-0.719 -1.509,-1.087 l -0.117,-0.084 h 0.006 c 0,0 -1.162,-0.829 -0.394,-1.711 0,0 -0.221,0.941 1.703,1.711 h 0.275 1.213 6.884 l -0.077,0.715 c -0.005,0.049 -0.099,0.967 -0.216,2.488 0.182,0.002 0.37,-0.002 0.551,-0.017 h 10e-4 c 0.088,-0.008 0.17,-0.023 0.252,-0.037 0.114,-0.044 0.2,-0.136 0.089,-0.333 -0.221,-0.392 -0.489,-0.562 -0.489,-0.562 0,0 0.711,0.073 1.126,0.759 0.416,0.683 -0.441,1.226 -1.419,1.147 v -0.002 c -0.055,0 -0.12,-0.006 -0.182,-0.009 -0.051,0.733 -0.105,1.561 -0.155,2.47 0.749,1.168 1.327,2.48 1.45,3.867 0.152,1.725 -0.426,3.322 -1.698,4.754 0,0.254 0.003,0.512 0.005,0.77 0,0 0.906,16.928 1.738,19.633 l 0.109,0.346 -0.31,0.19 c -0.015,0.01 -0.736,0.468 -1.446,1.226 0,0 -0.745,0.667 -1.023,1.472 -0.306,0.658 -0.46,1.403 -0.273,2.211 0.032,0.071 0.38,0.891 0.733,1.948 L 1.788,-0.218 C 1.612,-0.737 1.462,-1.29 1.321,-1.856 c 0.198,-0.402 0.568,-1.04 1.029,-1.332 0.195,0.95 0.419,1.863 0.703,2.68 l 0.045,0.13 -0.812,9.054 C 2.297,7.324 1.376,4.383 1.376,4.383 1.07,2.533 0.032,0.093 0,0 m 1.126,-36.376 c 0.022,-0.339 0.046,-0.669 0.068,-0.976 -0.387,-0.044 -0.781,-0.117 -1.184,-0.226 0.364,0.359 0.742,0.765 1.116,1.202 m -4.414,-3.713 c 1.551,0.933 3.143,1.648 4.553,1.816 0.06,-0.76 0.116,-1.382 0.158,-1.816 z m 5.285,34.978 c 0.328,-0.301 0.628,-0.535 0.84,-0.685 -0.59,-2.138 -1.062,-7.754 -1.415,-11.475 -0.033,2.944 0.059,8.673 0.575,12.16"
           style="fill:#000000;fill-opacity:1;fill-rule:nonzero;stroke:none"
           id="path434" />
      </g>
      <g
         id="g436"
         transform="translate(33.822,359.2961)">
        <path
           d="M 0,0 C 1.067,0.39 3.66,1.532 4.141,3.508 H 42.593 C 43.072,1.532 45.666,0.39 46.732,0 l 0.289,-4.154 c 0.641,1.549 0.945,4.838 0.945,4.838 L 47.942,0.962 47.53,1.091 c -0.968,0.3 -3.724,1.506 -3.724,3.062 V 4.799 H 2.927 V 4.153 C 2.927,2.597 0.171,1.391 -0.797,1.091 L -1.21,0.962 -1.233,0.684 c 0,0 0.304,-3.289 0.945,-4.838 z"
           style="fill:#000000;fill-opacity:1;fill-rule:nonzero;stroke:none"
           id="path438" />
      </g>
      <g
         id="g440"
         transform="translate(30.6697,310.7249)">
        <path
           d="m 0,0 c 0.417,-0.686 1.126,-0.759 1.126,-0.759 0,0 -0.27,0.17 -0.49,0.563 C 0.526,0 0.612,0.092 0.726,0.136 0.809,0.15 0.89,0.165 0.978,0.173 H 0.979 C 1.16,0.188 1.347,0.192 1.531,0.19 1.414,-1.331 1.319,-2.249 1.313,-2.298 L 1.237,-3.013 h 6.867 1.231 0.274 c 1.925,-0.77 1.703,-1.711 1.703,-1.711 0.769,0.882 -0.394,1.711 -0.394,1.711 h 0.007 l -0.117,0.084 c -0.486,0.368 -0.989,0.734 -1.51,1.087 L 9.133,-1.723 H 9.122 C 8.376,-1.224 7.606,-0.747 6.829,-0.338 6.675,-0.226 4.63,1.27 3.053,3.385 v 0.002 c 0,0 -0.013,0.016 -0.035,0.046 C 2.916,3.572 2.816,3.712 2.72,3.854 2.687,3.902 2.655,3.95 2.618,4.003 1.903,5.088 1.351,6.302 1.241,7.559 1.146,8.647 1.404,9.681 1.994,10.649 1.977,9.175 1.94,7.753 1.891,6.437 2.138,5.823 2.594,4.791 3.097,4.153 c 0.136,2.525 1.191,24.256 0.107,30.346 0.721,1.008 1.25,2.329 0.887,3.867 -0.033,0.093 -1.07,2.533 -1.376,4.383 0,0 -0.923,2.941 -0.911,4.293 l -0.813,-9.054 0.047,-0.13 c 0.283,-0.817 0.508,-1.73 0.703,-2.679 0.46,0.291 0.83,0.929 1.03,1.331 -0.143,0.566 -0.292,1.119 -0.469,1.638 l 0.169,1.875 C 2.825,38.966 3.173,38.146 3.204,38.075 3.391,37.268 3.237,36.522 2.931,35.864 2.655,35.06 1.907,34.393 1.907,34.393 1.198,33.634 0.477,33.176 0.462,33.166 L 0.153,32.977 0.261,32.63 C 1.093,29.925 2,12.997 2,12.997 2.002,12.739 2.005,12.481 2.005,12.228 0.731,10.795 0.153,9.198 0.306,7.474 0.429,6.086 1.007,4.774 1.756,3.606 1.706,2.697 1.652,1.869 1.6,1.136 1.54,1.14 1.476,1.146 1.419,1.146 L 1.42,1.147 C 0.441,1.227 -0.415,0.684 0,0 M 2.964,1.99 C 3.337,1.553 3.717,1.147 4.081,0.788 3.677,0.897 3.284,0.97 2.896,1.015 2.919,1.321 2.942,1.651 2.964,1.99 M 2.826,0.093 C 4.235,-0.075 5.827,-0.79 7.379,-1.723 H 2.668 c 0.041,0.434 0.097,1.056 0.158,1.816 M 1.254,32.57 c 0.21,0.151 0.512,0.384 0.84,0.685 0.514,-3.486 0.608,-9.216 0.575,-12.16 -0.355,3.721 -0.825,9.338 -1.415,11.475"
           style="fill:#000000;fill-opacity:1;fill-rule:nonzero;stroke:none"
           id="path442" />
      </g>
      <g
         id="g444"
         transform="translate(71.7625,305.5872)">
        <path
           d="m 0,0 c -0.067,0.055 -1.026,0.878 0.278,2.125 l 1.633,1.29 H 0.391 C 0.735,4.434 0.914,5.345 0.97,6.15 1.511,5.414 2.664,4.306 4.395,4.969 4.002,4.857 2.392,4.623 0.945,7.656 L 0.941,7.642 c -0.289,2.403 -1.656,3.496 -1.656,3.496 1.418,-2.791 1.091,-5.267 0.629,-6.763 -0.009,-0.011 -0.296,-0.41 -0.877,-0.42 0.352,0.887 0.551,1.819 0.551,2.785 0,5.62 -6.354,10.192 -14.162,10.192 -7.809,0 -14.161,-4.572 -14.161,-10.192 0,-0.966 0.199,-1.898 0.549,-2.785 -0.581,0.01 -0.869,0.409 -0.876,0.42 -0.461,1.496 -0.79,3.972 0.629,6.763 0,0 -1.368,-1.093 -1.657,-3.496 l -0.004,0.014 c -1.447,-3.033 -3.054,-2.799 -3.449,-2.687 1.731,-0.663 2.885,0.445 3.426,1.181 0.055,-0.805 0.234,-1.716 0.578,-2.735 h -1.522 l 1.633,-1.29 c 1.307,-1.247 0.348,-2.07 0.282,-2.125 -1.602,-0.68 -3.842,-1.116 -6.284,-0.005 0,0 0.977,-1.446 2.463,-1.839 0,0 2.335,0.851 3.559,0.549 0,0 2.034,2.58 3.949,1.524 0.097,-0.084 0.203,-0.16 0.305,-0.24 0.025,-0.02 0.05,-0.04 0.076,-0.06 -3.945,-0.541 -3.657,-3.27 -3.657,-3.27 0.397,1.198 1.985,1.069 1.985,1.069 0.35,1.321 2.367,1.122 2.389,1.118 0.199,-0.05 0.416,-0.114 0.637,-0.197 0.062,-0.024 0.123,-0.058 0.185,-0.084 0.164,-0.069 0.329,-0.137 0.492,-0.229 0.127,-0.072 0.242,-0.169 0.363,-0.255 0.096,-0.069 0.198,-0.123 0.286,-0.201 0.204,-0.18 0.392,-0.387 0.552,-0.629 l 5.188,-0.592 -0.041,0.017 c 0.004,-0.002 0.006,-0.002 0.01,-0.002 0.318,-0.035 0.638,-0.067 0.963,-0.084 0.38,-0.027 0.764,-0.042 1.152,-0.042 0.388,0 0.772,0.015 1.15,0.042 0.326,0.017 0.646,0.049 0.965,0.084 0.004,0 0.006,0 0.01,0.002 l -0.041,-0.017 5.187,0.592 c 0.637,0.959 1.708,1.393 2.513,1.595 0,0 2.04,0.211 2.393,-1.118 0,0 1.585,0.129 1.985,-1.069 0,0 0.287,2.729 -3.657,3.27 0.025,0.02 0.049,0.04 0.075,0.06 0.101,0.08 0.209,0.156 0.306,0.24 1.915,1.056 3.949,-1.524 3.949,-1.524 1.223,0.302 3.558,-0.549 3.558,-0.549 1.486,0.393 2.463,1.839 2.463,1.839 C 3.84,-1.116 1.601,-0.68 0,0 m -14.574,15.524 c 7.033,0 12.755,-3.941 12.755,-8.784 0,-1.178 -0.344,-2.301 -0.957,-3.327 C -2.899,3.207 -3.037,3.008 -3.182,2.813 -3.198,2.79 -3.214,2.766 -3.229,2.744 -3.39,2.533 -3.561,2.326 -3.742,2.125 c -0.83,-0.92 -1.899,-1.726 -3.146,-2.377 -0.046,-0.026 -0.093,-0.051 -0.141,-0.074 -0.379,-0.195 -0.775,-0.373 -1.184,-0.537 -0.037,-0.015 -0.07,-0.032 -0.106,-0.043 -0.45,-0.177 -0.915,-0.334 -1.397,-0.473 -0.028,-0.008 -0.059,-0.014 -0.087,-0.022 -0.422,-0.118 -0.855,-0.216 -1.297,-0.303 -0.136,-0.028 -0.274,-0.051 -0.412,-0.073 -0.359,-0.063 -0.724,-0.112 -1.095,-0.153 -0.144,-0.014 -0.289,-0.033 -0.434,-0.047 -0.504,-0.041 -1.014,-0.068 -1.533,-0.068 -0.52,0 -1.03,0.027 -1.531,0.068 -0.149,0.014 -0.291,0.033 -0.437,0.047 -0.37,0.041 -0.735,0.09 -1.095,0.153 -0.136,0.022 -0.274,0.045 -0.411,0.073 -0.442,0.087 -0.876,0.185 -1.297,0.303 -0.029,0.008 -0.059,0.014 -0.088,0.022 -0.48,0.139 -0.946,0.296 -1.397,0.473 -0.035,0.011 -0.069,0.028 -0.106,0.043 -0.409,0.164 -0.802,0.342 -1.183,0.537 -0.047,0.023 -0.094,0.048 -0.143,0.074 -1.244,0.651 -2.314,1.457 -3.144,2.377 -0.181,0.201 -0.352,0.408 -0.512,0.619 -0.017,0.022 -0.031,0.044 -0.047,0.067 -0.146,0.197 -0.283,0.396 -0.406,0.602 -0.613,1.026 -0.957,2.149 -0.957,3.327 0,4.843 5.722,8.784 12.754,8.784 M -28.098,0.521 c 0.047,0.664 -0.244,1.241 -0.502,1.604 h 1.414 c 0.155,-0.215 0.318,-0.423 0.491,-0.628 l -0.014,-0.009 c 0,0 -0.516,-0.467 -1.389,-0.967 m 27.047,0 c -0.872,0.5 -1.389,0.967 -1.389,0.967 l -0.012,0.009 c 0.173,0.205 0.337,0.413 0.488,0.628 h 1.416 c -0.26,-0.363 -0.55,-0.94 -0.503,-1.604"
           style="fill:#000000;fill-opacity:1;fill-rule:nonzero;stroke:none"
           id="path446" />
      </g>
    </g>
  </g>
</svg>
