<?xml version="1.0" encoding="UTF-8" standalone="no"?>
<!-- Created with Inkscape (http://www.inkscape.org/) -->

<svg
   width="18.786219mm"
   height="21.857758mm"
   viewBox="0 0 18.786219 21.857758"
   version="1.1"
   id="svg6576"
   sodipodi:docname="border-ability-intelligence.svg"
   inkscape:version="1.2.2 (b0a8486, 2022-12-01)"
   xmlns:inkscape="http://www.inkscape.org/namespaces/inkscape"
   xmlns:sodipodi="http://sodipodi.sourceforge.net/DTD/sodipodi-0.dtd"
   xmlns="http://www.w3.org/2000/svg"
   xmlns:svg="http://www.w3.org/2000/svg">
  <sodipodi:namedview
     id="namedview6578"
     pagecolor="#ffffff"
     bordercolor="#000000"
     borderopacity="0.25"
     inkscape:showpageshadow="2"
     inkscape:pageopacity="0.0"
     inkscape:pagecheckerboard="0"
     inkscape:deskcolor="#d1d1d1"
     inkscape:document-units="mm"
     showgrid="false"
     inkscape:zoom="0.75455247"
     inkscape:cx="-216.02209"
     inkscape:cy="69.577666"
     inkscape:window-width="1390"
     inkscape:window-height="1205"
     inkscape:window-x="1130"
     inkscape:window-y="142"
     inkscape:window-maximized="0"
     inkscape:current-layer="g326" />
  <defs
     id="defs6573">
    <clipPath
       clipPathUnits="userSpaceOnUse"
       id="clipPath330">
      <path
         d="M 0,0 H 612 V 792 H 0 Z"
         id="path328" />
    </clipPath>
  </defs>
  <g
     inkscape:label="Layer 1"
     inkscape:groupmode="layer"
     id="layer1"
     transform="translate(-59.506206,-114.05501)">
    <g
       id="g326"
       clip-path="url(#clipPath330)"
       transform="matrix(0.35277777,0,0,-0.35277777,48.724575,267.75506)">
      <g
         id="g404"
         transform="translate(31.3208,415.2144)">
        <path
           d="m 0,0 c 0,0 2.231,-11.25 1.5,-21.5 0,0 -3.125,-3.125 0.25,-8.187 l -0.28,-5.472 h 24.397 24.398 l -0.281,5.472 c 3.375,5.062 0.25,8.187 0.25,8.187 -0.731,10.25 1.5,21.5 1.5,21.5 l -1.437,1.062 c 0.312,0.563 1.098,4.029 1.098,4.029 L 50.443,16.636 C 47.59,15.459 45.75,19.775 45.75,19.775 H 25.867 5.984 c 0,0 -1.839,-4.316 -4.693,-3.139 L 0.34,5.091 c 0,0 0.785,-3.466 1.097,-4.029 z"
           style="fill:#ffffff;fill-opacity:1;fill-rule:nonzero;stroke:none"
           id="path406" />
      </g>
      <g
         id="g408"
         transform="translate(57.188,392.1577)">
        <path
           d="m 0,0 c 6.731,0 12.208,-3.695 12.208,-8.238 0,-4.543 -5.477,-8.24 -12.208,-8.24 -6.731,0 -12.208,3.697 -12.208,8.24 C -12.208,-3.695 -6.731,0 0,0"
           style="fill:#ffffff;fill-opacity:1;fill-rule:nonzero;stroke:none"
           id="path410" />
      </g>
      <g
         id="g412"
         transform="translate(57.188,376.9302)">
        <path
           d="m 0,0 c -5.939,0 -10.958,3.201 -10.958,6.989 0,3.788 5.019,6.989 10.958,6.989 5.939,0 10.958,-3.201 10.958,-6.989 C 10.958,3.201 5.939,0 0,0 m 0,-2.5 c 7.434,0 13.458,4.249 13.458,9.489 0,5.24 -6.024,9.489 -13.458,9.489 -7.433,0 -13.458,-4.249 -13.458,-9.489 0,-5.24 6.025,-9.489 13.458,-9.489"
           style="fill:#dedfdf;fill-opacity:1;fill-rule:nonzero;stroke:none"
           id="path414" />
      </g>
      <g
         id="g416"
         transform="translate(69.7993,379.3032)">
        <path
           d="M 0,0 H 1.489 C 0.342,-0.953 0.091,-2.088 0.091,-2.088 0.501,-2.123 1.204,-2.482 1.204,-2.482 0.618,-1.114 2.242,0 2.242,0 L 3.875,1.291 H 2.354 C 2.699,2.31 2.877,3.221 2.934,4.025 3.474,3.289 4.627,2.181 6.357,2.845 5.965,2.732 4.355,2.498 2.909,5.531 L 2.904,5.516 C 2.615,7.921 1.248,9.013 1.248,9.013 2.667,6.223 2.34,3.746 1.878,2.25 1.869,2.238 1.581,1.84 1,1.83 c 0.352,0.887 0.551,1.818 0.551,2.785 0,5.619 -6.354,10.192 -14.161,10.192 -7.81,0 -14.162,-4.573 -14.162,-10.192 0,-0.967 0.2,-1.898 0.549,-2.785 -0.58,0.01 -0.868,0.408 -0.876,0.42 -0.462,1.496 -0.79,3.973 0.63,6.763 0,0 -1.369,-1.092 -1.657,-3.497 l -0.005,0.015 c -1.446,-3.033 -3.055,-2.799 -3.448,-2.686 1.729,-0.664 2.884,0.444 3.425,1.18 0.056,-0.804 0.234,-1.715 0.579,-2.734 h -1.522 L -27.476,0.01 -27.487,0 c 0,0 1.624,-1.114 1.038,-2.482 0,0 0.703,0.359 1.113,0.394 0,0 -0.251,1.135 -1.398,2.088 h 1.512 c 0.555,-0.781 1.245,-1.502 2.05,-2.151 -3.82,-0.383 -5.859,-2.443 -5.859,-2.443 3.402,0.938 4.927,0 4.927,0 -0.156,0.781 -1.017,0.938 -1.017,0.938 0.078,1.094 2.702,0.377 2.702,0.377 l 0.004,0.006 c 0.805,-0.199 1.891,-0.633 2.532,-1.6 l 5.188,-0.594 -0.041,0.018 c 0.695,-0.076 1.401,-0.128 2.126,-0.128 0.723,0 1.43,0.052 2.126,0.128 l -0.043,-0.018 5.188,0.594 c 0.636,0.958 1.708,1.393 2.513,1.594 0,0 2.624,0.717 2.702,-0.377 0,0 -0.861,-0.157 -1.018,-0.938 0,0 1.526,0.938 4.927,0 0,0 -2.029,2.053 -5.837,2.441 C -1.247,-1.504 -0.556,-0.783 0,0 m -23.442,0 v 0 c -0.181,0.202 -0.353,0.408 -0.514,0.618 -0.015,0.023 -0.03,0.046 -0.046,0.069 -0.146,0.196 -0.284,0.395 -0.406,0.602 -0.613,1.027 -0.957,2.149 -0.957,3.326 0,4.844 5.722,8.785 12.755,8.785 C -5.578,13.4 0.144,9.459 0.144,4.615 0.144,3.438 -0.2,2.314 -0.812,1.287 -0.936,1.082 -1.073,0.883 -1.219,0.687 -1.235,0.664 -1.249,0.642 -1.267,0.618 -1.426,0.408 -1.598,0.202 -1.779,0 -4.03,-2.497 -8.038,-4.169 -12.61,-4.169 c -4.574,0 -8.58,1.672 -10.832,4.169 M 9.816,41.38 C 9.454,39.842 9.984,38.521 10.704,37.512 9.621,31.421 10.676,9.69 10.813,7.166 c 0.501,0.638 0.958,1.668 1.205,2.284 -0.051,1.316 -0.087,2.738 -0.105,4.212 0.591,-0.969 0.849,-2.002 0.754,-3.09 C 12.557,9.314 12.006,8.1 11.29,7.016 11.254,6.961 11.222,6.915 11.189,6.867 11.092,6.725 10.991,6.584 10.89,6.446 10.868,6.417 10.855,6.399 10.855,6.399 V 6.398 C 9.278,4.283 7.232,2.787 7.078,2.676 6.302,2.268 5.533,1.79 4.787,1.291 H 4.775 L 4.609,1.172 C 4.09,0.816 3.586,0.452 3.101,0.085 L 2.983,0 h 0.006 c 0,0 -0.659,-0.479 -0.747,-1.285 0,0 0.556,0.911 2.045,1.285 H 4.573 5.786 6.277 C 3.98,-1.381 2.917,-3.205 2.917,-3.205 3.591,-3.499 4.099,-4.242 4.099,-4.242 3.65,-2.774 4.894,-1.606 6.185,-0.822 6.298,-0.771 8.2,0.085 9.808,0 h 2.863 l -0.077,0.715 c -0.004,0.049 -0.1,0.968 -0.217,2.488 0.184,0.002 0.37,-0.002 0.553,-0.017 h 10e-4 C 13.019,3.178 13.1,3.162 13.182,3.148 13.295,3.104 13.383,3.014 13.271,2.816 13.051,2.425 12.782,2.253 12.782,2.253 c 0,0 0.71,0.075 1.125,0.759 0.417,0.685 -0.44,1.228 -1.419,1.148 V 4.158 c -0.054,0 -0.12,-0.006 -0.18,-0.009 -0.052,0.733 -0.106,1.561 -0.157,2.47 0.749,1.167 1.328,2.481 1.451,3.867 0.152,1.726 -0.425,3.323 -1.699,4.755 0,0.253 0.003,0.511 0.005,0.767 0,0 0.907,16.93 1.738,19.635 l 0.11,0.345 -0.311,0.192 c -0.014,0.008 -0.736,0.467 -1.445,1.224 0,0 -0.746,0.668 -1.023,1.473 -0.306,0.658 -0.46,1.404 -0.273,2.21 0.031,0.071 0.379,0.892 0.733,1.948 l 0.168,-1.875 c -0.175,-0.517 -0.325,-1.07 -0.466,-1.637 0.197,-0.403 0.567,-1.04 1.027,-1.331 0.197,0.949 0.421,1.863 0.704,2.678 l 0.046,0.132 -0.812,9.053 C 12.115,48.701 11.193,45.762 11.193,45.762 10.888,43.912 9.851,41.473 9.816,41.38 M 10.943,5.003 C 10.966,4.664 10.989,4.335 11.012,4.028 10.624,3.982 10.231,3.911 9.827,3.801 10.191,4.159 10.57,4.565 10.943,5.003 M 6.529,1.291 c 1.552,0.932 3.144,1.647 4.553,1.815 0.061,-0.76 0.116,-1.381 0.158,-1.815 z m 5.285,34.977 c 0.329,-0.302 0.629,-0.535 0.84,-0.685 -0.59,-2.138 -1.061,-7.753 -1.415,-11.476 -0.033,2.944 0.06,8.674 0.575,12.161 m -48.079,11.161 c -0.641,1.55 -0.945,4.838 -0.945,4.838 l 0.022,0.28 0.414,0.127 c 0.967,0.301 3.723,1.507 3.723,3.062 v 0.646 H 7.828 v -0.646 c 0,-1.555 2.757,-2.761 3.725,-3.062 l 0.412,-0.127 0.024,-0.28 c 0,0 -0.304,-3.288 -0.946,-4.838 l -0.288,4.154 c -1.067,0.392 -3.66,1.532 -4.14,3.508 h -38.452 c -0.479,-1.976 -3.073,-3.116 -4.14,-3.508 z M -39.13,3.012 c 0.417,-0.684 1.126,-0.759 1.126,-0.759 0,0 -0.268,0.172 -0.489,0.563 -0.111,0.198 -0.025,0.288 0.09,0.332 0.083,0.014 0.163,0.03 0.251,0.038 h 0.002 c 0.181,0.015 0.368,0.019 0.55,0.017 -0.117,-1.52 -0.211,-2.439 -0.216,-2.488 L -37.893,0 h 4.83 c 1.45,-0.602 4.372,-2.107 3.719,-4.242 0,0 0.508,0.743 1.182,1.037 0,0 -1.064,1.824 -3.361,3.205 h 0.498 1.23 0.262 c 1.49,-0.374 2.046,-1.285 2.046,-1.285 C -27.575,-0.479 -28.236,0 -28.236,0 h 0.025 0.006 l -0.117,0.085 c -0.485,0.367 -0.989,0.731 -1.51,1.087 l -0.164,0.119 h -0.012 c -0.746,0.499 -1.515,0.977 -2.293,1.385 -0.154,0.111 -2.199,1.607 -3.775,3.722 v 0.001 c 0,0 -0.014,0.018 -0.035,0.047 -0.102,0.138 -0.202,0.279 -0.299,0.421 -0.033,0.048 -0.067,0.094 -0.101,0.149 -0.716,1.084 -1.267,2.298 -1.378,3.556 -0.095,1.088 0.164,2.121 0.754,3.09 -0.017,-1.474 -0.054,-2.896 -0.104,-4.212 0.247,-0.616 0.703,-1.646 1.206,-2.284 0.137,2.524 1.191,24.255 0.107,30.346 0.721,1.009 1.25,2.33 0.887,3.868 -0.033,0.093 -1.07,2.532 -1.376,4.382 0,0 -0.922,2.939 -0.911,4.293 l -0.812,-9.053 0.046,-0.132 c 0.284,-0.815 0.508,-1.729 0.703,-2.678 0.461,0.291 0.83,0.928 1.03,1.331 -0.142,0.567 -0.292,1.12 -0.469,1.637 l 0.169,1.875 c 0.353,-1.056 0.702,-1.877 0.733,-1.948 0.188,-0.806 0.033,-1.552 -0.273,-2.21 -0.278,-0.805 -1.023,-1.473 -1.023,-1.473 -0.709,-0.757 -1.431,-1.216 -1.446,-1.224 l -0.309,-0.192 0.108,-0.345 c 0.832,-2.705 1.739,-19.635 1.739,-19.635 0.002,-0.256 0.005,-0.514 0.005,-0.767 -1.272,-1.432 -1.851,-3.029 -1.699,-4.755 0.123,-1.386 0.701,-2.7 1.451,-3.867 -0.051,-0.909 -0.105,-1.737 -0.156,-2.47 -0.061,0.003 -0.125,0.009 -0.182,0.009 l 10e-4,0.002 c -0.978,0.08 -1.835,-0.463 -1.42,-1.148 m 2.964,1.991 c 0.374,-0.438 0.754,-0.844 1.117,-1.202 -0.404,0.11 -0.797,0.181 -1.185,0.227 0.023,0.307 0.046,0.636 0.068,0.975 m -0.138,-1.897 c 1.409,-0.168 3.001,-0.883 4.554,-1.815 h -4.711 c 0.04,0.434 0.096,1.055 0.157,1.815 m -1.571,32.477 c 0.21,0.15 0.511,0.383 0.84,0.685 0.514,-3.487 0.607,-9.217 0.574,-12.161 -0.353,3.723 -0.824,9.338 -1.414,11.476"
           style="fill:#000000;fill-opacity:1;fill-rule:nonzero;stroke:none"
           id="path418" />
      </g>
    </g>
  </g>
</svg>
