<?xml version="1.0" encoding="UTF-8" standalone="no"?>
<!-- Created with Inkscape (http://www.inkscape.org/) -->

<svg
   width="18.786192mm"
   height="21.85811mm"
   viewBox="0 0 18.786192 21.85811"
   version="1.1"
   id="svg6576"
   inkscape:version="1.2.2 (b0a8486, 2022-12-01)"
   sodipodi:docname="border-ability-dexterity.svg"
   xmlns:inkscape="http://www.inkscape.org/namespaces/inkscape"
   xmlns:sodipodi="http://sodipodi.sourceforge.net/DTD/sodipodi-0.dtd"
   xmlns="http://www.w3.org/2000/svg"
   xmlns:svg="http://www.w3.org/2000/svg">
  <sodipodi:namedview
     id="namedview6578"
     pagecolor="#ffffff"
     bordercolor="#000000"
     borderopacity="0.25"
     inkscape:showpageshadow="2"
     inkscape:pageopacity="0.0"
     inkscape:pagecheckerboard="0"
     inkscape:deskcolor="#d1d1d1"
     inkscape:document-units="mm"
     showgrid="false"
     inkscape:zoom="0.75455247"
     inkscape:cx="170.96227"
     inkscape:cy="321.38255"
     inkscape:window-width="1390"
     inkscape:window-height="1205"
     inkscape:window-x="1130"
     inkscape:window-y="142"
     inkscape:window-maximized="0"
     inkscape:current-layer="g326" />
  <defs
     id="defs6573">
    <clipPath
       clipPathUnits="userSpaceOnUse"
       id="clipPath330">
      <path
         d="M 0,0 H 612 V 792 H 0 Z"
         id="path328" />
    </clipPath>
  </defs>
  <g
     inkscape:label="Layer 1"
     inkscape:groupmode="layer"
     id="layer1"
     transform="translate(-59.506149,-63.543651)">
    <g
       id="g326"
       clip-path="url(#clipPath330)"
       transform="matrix(0.35277777,0,0,-0.35277777,48.724575,267.75506)">
      <g
         id="g372"
         transform="translate(31.3213,558.3943)">
        <path
           d="m 0,0 c 0,0 2.231,-11.25 1.5,-21.5 0,0 -3.125,-3.125 0.25,-8.187 l -0.28,-5.472 h 24.397 24.398 l -0.281,5.472 c 3.375,5.062 0.25,8.187 0.25,8.187 -0.731,10.25 1.5,21.5 1.5,21.5 l -1.437,1.062 c 0.312,0.563 1.098,4.029 1.098,4.029 L 50.443,16.636 C 47.59,15.459 45.75,19.775 45.75,19.775 H 25.867 5.984 c 0,0 -1.839,-4.316 -4.693,-3.139 L 0.34,5.091 c 0,0 0.785,-3.466 1.097,-4.029 z"
           style="fill:#ffffff;fill-opacity:1;fill-rule:nonzero;stroke:none"
           id="path374" />
      </g>
      <g
         id="g376"
         transform="translate(57.1885,535.3376)">
        <path
           d="m 0,0 c 6.731,0 12.208,-3.695 12.208,-8.238 0,-4.543 -5.477,-8.24 -12.208,-8.24 -6.731,0 -12.208,3.697 -12.208,8.24 C -12.208,-3.695 -6.731,0 0,0"
           style="fill:#ffffff;fill-opacity:1;fill-rule:nonzero;stroke:none"
           id="path378" />
      </g>
      <g
         id="g380"
         transform="translate(57.1885,520.1101)">
        <path
           d="m 0,0 c -5.94,0 -10.958,3.2 -10.958,6.989 0,3.788 5.018,6.989 10.958,6.989 5.94,0 10.958,-3.201 10.958,-6.989 C 10.958,3.2 5.94,0 0,0 m 0,-2.5 c 7.434,0 13.458,4.249 13.458,9.489 0,5.24 -6.024,9.489 -13.458,9.489 -7.433,0 -13.458,-4.249 -13.458,-9.489 0,-5.24 6.025,-9.489 13.458,-9.489"
           style="fill:#dedfdf;fill-opacity:1;fill-rule:nonzero;stroke:none"
           id="path382" />
      </g>
      <g
         id="g384"
         transform="translate(67.6855,520.283)">
        <path
           d="m 0,0 c 0.83,0.661 1.545,1.4 2.113,2.201 h 1.619 0.623 l 1.634,1.29 H 4.468 C 4.812,4.51 4.992,5.421 5.047,6.227 5.588,5.49 6.74,4.382 8.472,5.045 8.078,4.934 6.47,4.699 5.022,7.732 L 5.019,7.718 C 4.73,10.121 3.361,11.214 3.361,11.214 4.78,8.423 4.453,5.947 3.991,4.451 3.982,4.44 3.695,4.041 3.115,4.031 c 0.35,0.887 0.549,1.82 0.549,2.785 0,5.621 -6.353,10.192 -14.161,10.192 -7.808,0 -14.161,-4.571 -14.161,-10.192 0,-0.965 0.199,-1.898 0.549,-2.785 -0.58,0.01 -0.868,0.409 -0.876,0.42 -0.462,1.496 -0.789,3.972 0.63,6.763 0,0 -1.37,-1.093 -1.658,-3.496 l -0.004,0.014 c -1.446,-3.033 -3.055,-2.798 -3.448,-2.687 1.731,-0.663 2.884,0.445 3.424,1.182 0.057,-0.806 0.234,-1.717 0.579,-2.736 h -1.521 l 1.633,-1.29 h 0.607 1.636 c 0.568,-0.799 1.277,-1.534 2.103,-2.194 -0.049,-0.028 -4.154,-2.406 -7.303,-0.366 0,0 0.928,-1.893 3.948,-1.778 l -0.017,-0.004 c 0.044,0.004 0.079,0.002 0.122,0.006 0.024,0 0.047,0.002 0.07,0.004 3.467,0.338 5.085,-1.134 5.085,-1.134 -0.506,1.19 -1.495,1.613 -2.296,1.754 0.348,0.124 0.709,0.266 1.09,0.433 l 0.004,0.006 c 0.805,-0.199 1.891,-0.633 2.532,-1.601 l 5.187,-0.592 -0.041,0.017 c 0.695,-0.075 1.401,-0.128 2.126,-0.128 0.725,0 1.431,0.053 2.126,0.128 l -0.041,-0.017 5.186,0.592 c 0.638,0.959 1.708,1.393 2.513,1.595 0.381,-0.167 0.742,-0.309 1.09,-0.433 -0.801,-0.141 -1.789,-0.564 -2.297,-1.754 0,0 1.619,1.472 5.087,1.134 0.022,-0.002 0.046,-0.004 0.069,-0.004 0.043,-0.004 0.078,-0.002 0.121,-0.006 L 3.342,-2.137 C 6.359,-2.252 7.289,-0.359 7.289,-0.359 4.198,-2.363 0.192,-0.112 0,0 m -21.329,2.201 v 0 c -0.181,0.201 -0.353,0.408 -0.513,0.619 -0.015,0.022 -0.031,0.046 -0.046,0.069 -0.146,0.195 -0.284,0.394 -0.407,0.6 -0.613,1.029 -0.957,2.15 -0.957,3.327 0,4.843 5.723,8.785 12.755,8.785 7.032,0 12.755,-3.942 12.755,-8.785 0,-1.177 -0.344,-2.3 -0.957,-3.327 C 1.178,3.283 1.04,3.084 0.895,2.889 0.879,2.866 0.865,2.842 0.848,2.82 0.687,2.609 0.516,2.402 0.335,2.201 c -2.252,-2.497 -6.259,-4.17 -10.832,-4.17 -4.573,0 -8.58,1.673 -10.832,4.17 M 11.932,43.58 c -0.364,-1.538 0.166,-2.859 0.886,-3.867 -1.084,-6.09 -0.029,-27.821 0.108,-30.346 0.502,0.638 0.959,1.67 1.205,2.283 -0.051,1.317 -0.086,2.739 -0.104,4.213 0.59,-0.968 0.85,-2.002 0.753,-3.091 C 14.671,11.516 14.119,10.302 13.403,9.217 13.367,9.164 13.336,9.116 13.303,9.067 13.205,8.926 13.105,8.786 13.004,8.646 12.982,8.617 12.969,8.601 12.969,8.601 V 8.599 C 11.392,6.483 9.346,4.988 9.193,4.876 8.415,4.467 7.647,3.99 6.9,3.491 H 6.889 L 6.723,3.372 C 6.203,3.019 5.699,2.653 5.215,2.285 L 5.098,2.201 c 0,0 -1.289,-1.152 -0.86,-1.916 0.43,-0.762 3.011,-0.586 4.282,1.056 0,0 -1.27,-1.153 -2.659,-0.508 -0.614,0.286 -0.139,0.84 0.58,1.368 H 6.687 7.9 14.784 l -0.077,0.715 c -0.004,0.049 -0.1,0.967 -0.217,2.488 0.185,0.002 0.371,-0.002 0.553,-0.017 h 0.002 c 0.088,-0.008 0.168,-0.023 0.25,-0.037 0.114,-0.044 0.201,-0.136 0.091,-0.332 -0.221,-0.393 -0.49,-0.563 -0.49,-0.563 0,0 0.709,0.073 1.125,0.759 0.416,0.683 -0.441,1.226 -1.419,1.147 l 0.002,-0.002 c -0.057,0 -0.122,-0.005 -0.183,-0.009 -0.052,0.733 -0.105,1.561 -0.155,2.47 0.749,1.168 1.327,2.48 1.449,3.868 0.153,1.724 -0.425,3.321 -1.697,4.753 0,0.254 0.002,0.512 0.003,0.77 0,0 0.909,16.928 1.741,19.633 l 0.107,0.346 -0.308,0.19 c -0.016,0.01 -0.738,0.468 -1.448,1.226 0,0 -0.746,0.667 -1.023,1.472 -0.306,0.658 -0.459,1.403 -0.272,2.211 0.032,0.071 0.379,0.891 0.733,1.948 l 0.169,-1.875 c -0.177,-0.519 -0.326,-1.072 -0.468,-1.638 0.199,-0.402 0.568,-1.04 1.029,-1.331 0.196,0.949 0.419,1.862 0.703,2.679 l 0.046,0.13 -0.812,9.054 c 0.011,-1.352 -0.911,-4.293 -0.911,-4.293 -0.306,-1.85 -1.343,-4.29 -1.375,-4.383 M 13.058,7.204 C 13.08,6.865 13.104,6.535 13.125,6.229 12.738,6.184 12.345,6.111 11.941,6.002 c 0.364,0.359 0.743,0.765 1.117,1.202 M 8.643,3.491 c 1.551,0.933 3.144,1.648 4.552,1.816 0.062,-0.76 0.118,-1.382 0.159,-1.816 z m 5.285,34.978 c 0.328,-0.301 0.629,-0.534 0.84,-0.685 -0.59,-2.138 -1.061,-7.754 -1.414,-11.475 -0.034,2.944 0.06,8.673 0.574,12.16 M -34.15,49.631 c -0.643,1.549 -0.947,4.838 -0.947,4.838 l 0.025,0.278 0.412,0.129 c 0.967,0.3 3.723,1.506 3.723,3.062 v 0.646 H 9.942 v -0.646 c 0,-1.556 2.757,-2.762 3.724,-3.062 l 0.412,-0.129 0.025,-0.278 c 0,0 -0.304,-3.289 -0.946,-4.838 l -0.288,4.154 c -1.066,0.39 -3.66,1.532 -4.14,3.508 h -38.452 c -0.48,-1.976 -3.074,-3.118 -4.14,-3.508 z M -37.016,5.214 c 0.416,-0.686 1.126,-0.759 1.126,-0.759 0,0 -0.269,0.17 -0.49,0.563 -0.11,0.196 -0.022,0.288 0.091,0.332 0.082,0.014 0.163,0.029 0.25,0.037 h 0.002 c 0.182,0.015 0.368,0.019 0.553,0.017 -0.118,-1.521 -0.213,-2.439 -0.217,-2.488 l -0.077,-0.715 h 6.868 1.229 0.221 c 0.72,-0.528 1.195,-1.082 0.581,-1.368 -1.39,-0.645 -2.659,0.508 -2.659,0.508 1.271,-1.642 3.851,-1.818 4.282,-1.056 0.43,0.764 -0.859,1.916 -0.859,1.916 h 0.017 0.006 l -0.117,0.084 c -0.484,0.368 -0.988,0.734 -1.508,1.087 l -0.166,0.119 h -0.012 c -0.746,0.499 -1.514,0.976 -2.292,1.385 -0.153,0.112 -2.199,1.607 -3.776,3.723 v 0.002 c 0,0 -0.014,0.016 -0.034,0.045 -0.103,0.14 -0.202,0.28 -0.3,0.421 -0.033,0.049 -0.064,0.097 -0.1,0.15 -0.716,1.085 -1.268,2.299 -1.377,3.555 -0.097,1.089 0.163,2.123 0.753,3.091 -0.018,-1.474 -0.053,-2.896 -0.104,-4.213 0.246,-0.613 0.703,-1.645 1.205,-2.283 0.137,2.525 1.191,24.256 0.108,30.346 0.72,1.008 1.249,2.329 0.888,3.867 -0.033,0.093 -1.071,2.533 -1.377,4.383 0,0 -0.923,2.941 -0.911,4.293 l -0.811,-9.054 0.044,-0.13 c 0.285,-0.817 0.508,-1.73 0.706,-2.679 0.459,0.291 0.828,0.929 1.027,1.331 -0.141,0.566 -0.291,1.119 -0.468,1.638 l 0.169,1.875 c 0.354,-1.057 0.703,-1.877 0.733,-1.948 0.187,-0.808 0.034,-1.553 -0.272,-2.211 -0.277,-0.805 -1.023,-1.472 -1.023,-1.472 -0.709,-0.758 -1.432,-1.216 -1.448,-1.226 l -0.308,-0.19 0.107,-0.346 c 0.833,-2.705 1.74,-19.633 1.74,-19.633 0.002,-0.258 0.004,-0.516 0.004,-0.77 -1.272,-1.432 -1.85,-3.029 -1.697,-4.753 0.122,-1.388 0.701,-2.7 1.449,-3.868 -0.051,-0.909 -0.103,-1.737 -0.155,-2.47 -0.062,0.004 -0.126,0.009 -0.183,0.009 l 0.002,0.002 c -0.978,0.079 -1.836,-0.464 -1.42,-1.147 m 2.965,1.99 c 0.373,-0.437 0.753,-0.843 1.116,-1.202 -0.404,0.109 -0.797,0.182 -1.184,0.227 0.021,0.306 0.045,0.636 0.068,0.975 m -0.138,-1.897 c 1.408,-0.168 3.001,-0.883 4.552,-1.816 h -4.711 c 0.041,0.434 0.097,1.056 0.159,1.816 m -1.573,32.477 c 0.211,0.151 0.512,0.384 0.84,0.685 0.514,-3.487 0.608,-9.216 0.575,-12.16 -0.353,3.721 -0.824,9.337 -1.415,11.475"
           style="fill:#000000;fill-opacity:1;fill-rule:nonzero;stroke:none"
           id="path386" />
      </g>
    </g>
  </g>
</svg>
