<?xml version="1.0" encoding="UTF-8" standalone="no"?>
<!-- Created with Inkscape (http://www.inkscape.org/) -->

<svg
   width="18.786243mm"
   height="22.023573mm"
   viewBox="0 0 18.786243 22.023573"
   version="1.1"
   id="svg6576"
   sodipodi:docname="border-ability-charisma.svg"
   inkscape:version="1.2.2 (b0a8486, 2022-12-01)"
   xmlns:inkscape="http://www.inkscape.org/namespaces/inkscape"
   xmlns:sodipodi="http://sodipodi.sourceforge.net/DTD/sodipodi-0.dtd"
   xmlns="http://www.w3.org/2000/svg"
   xmlns:svg="http://www.w3.org/2000/svg">
  <sodipodi:namedview
     id="namedview6578"
     pagecolor="#ffffff"
     bordercolor="#000000"
     borderopacity="0.25"
     inkscape:showpageshadow="2"
     inkscape:pageopacity="0.0"
     inkscape:pagecheckerboard="0"
     inkscape:deskcolor="#d1d1d1"
     inkscape:document-units="mm"
     showgrid="false"
     inkscape:zoom="0.75455247"
     inkscape:cx="117.95071"
     inkscape:cy="-65.6018"
     inkscape:window-width="1390"
     inkscape:window-height="1205"
     inkscape:window-x="1130"
     inkscape:window-y="142"
     inkscape:window-maximized="0"
     inkscape:current-layer="g326" />
  <defs
     id="defs6573">
    <clipPath
       clipPathUnits="userSpaceOnUse"
       id="clipPath330">
      <path
         d="M 0,0 H 612 V 792 H 0 Z"
         id="path328" />
    </clipPath>
  </defs>
  <g
     inkscape:label="Layer 1"
     inkscape:groupmode="layer"
     id="layer1"
     transform="translate(-59.506298,-164.48325)">
    <g
       id="g326"
       clip-path="url(#clipPath330)"
       transform="matrix(0.35277777,0,0,-0.35277777,48.724575,267.75506)">
      <g
         id="g448"
         transform="translate(31.3213,272.2661)">
        <path
           d="m 0,0 c 0,0 2.231,-11.25 1.5,-21.5 0,0 -3.125,-3.125 0.25,-8.187 l -0.28,-5.472 h 24.397 24.398 l -0.281,5.472 c 3.375,5.062 0.25,8.187 0.25,8.187 -0.731,10.25 1.5,21.5 1.5,21.5 l -1.437,1.062 c 0.312,0.563 1.098,4.029 1.098,4.029 L 50.443,16.636 C 47.59,15.459 45.75,19.775 45.75,19.775 H 25.867 5.984 c 0,0 -1.839,-4.316 -4.693,-3.139 L 0.34,5.091 c 0,0 0.785,-3.466 1.097,-4.029 z"
           style="fill:#ffffff;fill-opacity:1;fill-rule:nonzero;stroke:none"
           id="path450" />
      </g>
      <g
         id="g452"
         transform="translate(57.1885,249.2095)">
        <path
           d="m 0,0 c 6.731,0 12.208,-3.695 12.208,-8.238 0,-4.543 -5.477,-8.24 -12.208,-8.24 -6.731,0 -12.208,3.697 -12.208,8.24 C -12.208,-3.695 -6.731,0 0,0"
           style="fill:#ffffff;fill-opacity:1;fill-rule:nonzero;stroke:none"
           id="path454" />
      </g>
      <g
         id="g456"
         transform="translate(57.1885,233.9819)">
        <path
           d="m 0,0 c -5.939,0 -10.958,3.2 -10.958,6.989 0,3.788 5.019,6.989 10.958,6.989 5.939,0 10.958,-3.201 10.958,-6.989 C 10.958,3.2 5.939,0 0,0 m 0,-2.5 c 7.434,0 13.458,4.249 13.458,9.489 0,5.24 -6.024,9.489 -13.458,9.489 -7.433,0 -13.458,-4.249 -13.458,-9.489 0,-5.24 6.025,-9.489 13.458,-9.489"
           style="fill:#dedfdf;fill-opacity:1;fill-rule:nonzero;stroke:none"
           id="path458" />
      </g>
      <g
         id="g460"
         transform="translate(72.042,236.356)">
        <path
           d="M 0,0 1.633,1.29 H 0.111 C 0.456,2.309 0.635,3.22 0.69,4.027 1.231,3.29 2.385,2.181 4.115,2.844 3.722,2.732 2.113,2.498 0.667,5.531 L 0.662,5.517 C 0.373,7.921 -0.995,9.013 -0.995,9.013 0.425,6.222 0.097,3.746 -0.365,2.25 -0.373,2.239 -0.661,1.84 -1.242,1.83 c 0.35,0.887 0.55,1.819 0.55,2.785 0,5.621 -6.354,10.192 -14.162,10.192 -7.808,0 -14.162,-4.571 -14.162,-10.192 0,-0.966 0.201,-1.898 0.552,-2.785 -0.582,0.01 -0.869,0.409 -0.878,0.42 -0.462,1.496 -0.789,3.972 0.63,6.763 0,0 -1.368,-1.092 -1.657,-3.496 l -0.004,0.014 c -1.446,-3.033 -3.056,-2.799 -3.449,-2.687 1.73,-0.663 2.885,0.446 3.425,1.183 0.056,-0.807 0.235,-1.718 0.579,-2.737 H -31.34 L -29.706,0 h 0.003 c 0,0 1.793,-1.227 1.394,-3.646 0,0 -0.28,-0.795 0.424,-0.911 0.662,-0.108 1.455,1.432 -0.694,4.557 h 1.115 c 0.316,-0.445 0.675,-0.871 1.075,-1.275 l -0.005,-0.008 c 0,0 0.025,-0.036 0.059,-0.092 2.287,-3.402 0.382,-3.953 0.376,-3.955 -0.196,-0.061 -0.269,-0.291 -0.167,-0.456 0.357,-0.581 2.556,-0.356 1.619,2.467 0.787,-0.214 1.778,-0.644 2.382,-1.555 l 5.188,-0.592 -0.042,0.017 c 0.695,-0.075 1.402,-0.128 2.125,-0.128 0.725,0 1.431,0.053 2.126,0.128 l -0.042,-0.017 5.188,0.592 c 0.606,0.911 1.597,1.343 2.386,1.557 -0.939,-2.825 1.26,-3.052 1.618,-2.469 0.1,0.165 0.029,0.395 -0.167,0.456 -0.006,0.002 -1.911,0.553 0.376,3.955 0.035,0.056 0.058,0.092 0.058,0.092 l -0.005,0.01 c 0.399,0.402 0.756,0.828 1.073,1.273 h 1.119 c -2.151,-3.125 -1.357,-4.665 -0.694,-4.557 0.703,0.116 0.422,0.911 0.422,0.911 C -1.794,-1.227 0,0 0,0 m -14.854,-4.17 c -4.572,0 -8.58,1.674 -10.832,4.17 -0.18,0.201 -0.352,0.408 -0.512,0.619 -0.017,0.022 -0.031,0.046 -0.046,0.068 -0.147,0.196 -0.284,0.395 -0.407,0.601 -0.614,1.028 -0.957,2.15 -0.957,3.327 0,4.843 5.722,8.784 12.754,8.784 C -7.821,13.399 -2.1,9.458 -2.1,4.615 -2.1,3.438 -2.443,2.314 -3.056,1.288 -3.179,1.082 -3.316,0.883 -3.462,0.687 -3.479,0.665 -3.492,0.641 -3.51,0.619 -3.669,0.408 -3.841,0.201 -4.021,0 -6.273,-2.496 -10.28,-4.17 -14.854,-4.17 M 7.574,41.379 C 7.211,39.842 7.741,38.52 8.462,37.512 7.378,31.422 8.433,9.691 8.569,7.166 9.071,7.804 9.528,8.836 9.776,9.449 9.725,10.766 9.688,12.188 9.671,13.664 10.261,12.693 10.52,11.66 10.425,10.571 10.314,9.314 9.763,8.101 9.047,7.016 9.011,6.963 8.979,6.915 8.946,6.867 8.849,6.725 8.749,6.585 8.647,6.446 8.625,6.416 8.612,6.399 8.612,6.399 V 6.397 C 7.035,4.282 4.99,2.787 4.837,2.676 4.059,2.268 3.291,1.791 2.544,1.29 H 2.532 L 2.368,1.171 C 2.093,0.983 1.834,0.788 1.568,0.596 L 1.553,0.6 C 1.251,0.408 0.998,0.218 0.78,0.029 L 0.74,0 H 0.745 C -0.875,-1.428 -0.288,-2.757 0.176,-2.912 0.703,-3.088 0.879,-2.35 0.879,-2.35 0.842,-1.189 1.655,-0.417 2.268,0 h 0.063 1.213 6.884 l -0.075,0.715 c -0.006,0.049 -0.101,0.967 -0.219,2.488 0.184,0.002 0.371,-0.002 0.553,-0.017 h 0.001 C 10.776,3.178 10.856,3.163 10.939,3.148 11.053,3.104 11.14,3.013 11.029,2.816 10.809,2.425 10.54,2.254 10.54,2.254 c 0,0 0.709,0.073 1.125,0.759 0.416,0.683 -0.44,1.226 -1.42,1.147 l 0.002,-0.002 c -0.057,0 -0.121,-0.006 -0.183,-0.01 -0.05,0.734 -0.104,1.562 -0.155,2.471 0.749,1.168 1.327,2.481 1.449,3.867 0.154,1.726 -0.423,3.322 -1.697,4.755 0,0.253 0.002,0.512 0.004,0.769 0,0 0.908,16.928 1.74,19.633 l 0.109,0.346 -0.311,0.19 c -0.015,0.009 -0.736,0.467 -1.445,1.226 0,0 -0.747,0.667 -1.024,1.472 -0.305,0.658 -0.46,1.404 -0.272,2.211 0.03,0.071 0.378,0.891 0.732,1.948 L 9.363,41.161 C 9.187,40.642 9.037,40.089 8.896,39.522 c 0.198,-0.401 0.568,-1.04 1.028,-1.331 0.196,0.95 0.42,1.863 0.704,2.68 l 0.046,0.13 -0.813,9.055 C 9.873,48.703 8.95,45.762 8.95,45.762 8.645,43.912 7.607,41.473 7.574,41.379 M 8.702,5.003 C 8.723,4.664 8.746,4.335 8.77,4.029 8.381,3.982 7.988,3.91 7.584,3.801 7.948,4.16 8.328,4.565 8.702,5.003 M 4.286,1.29 C 5.839,2.224 7.43,2.938 8.84,3.106 8.9,2.346 8.956,1.725 8.997,1.29 Z M 9.572,36.268 C 9.899,35.967 10.201,35.734 10.411,35.584 9.821,33.445 9.35,27.829 8.996,24.107 8.963,27.052 9.058,32.781 9.572,36.268 M -38.507,47.43 c -0.642,1.549 -0.946,4.838 -0.946,4.838 l 0.024,0.278 0.412,0.129 c 0.968,0.3 3.725,1.506 3.725,3.062 v 0.646 H 5.586 v -0.646 c 0,-1.556 2.757,-2.762 3.724,-3.062 l 0.413,-0.129 0.023,-0.278 c 0,0 -0.305,-3.289 -0.945,-4.838 l -0.288,4.154 c -1.068,0.391 -3.66,1.532 -4.141,3.508 h -38.451 c -0.481,-1.976 -3.074,-3.117 -4.141,-3.508 z M -41.372,3.013 c 0.416,-0.686 1.126,-0.759 1.126,-0.759 0,0 -0.27,0.171 -0.49,0.562 -0.111,0.197 -0.024,0.288 0.09,0.332 0.082,0.015 0.164,0.03 0.25,0.038 h 0.002 c 0.182,0.015 0.37,0.019 0.552,0.017 -0.117,-1.521 -0.212,-2.439 -0.217,-2.488 L -40.135,0 h 6.867 1.231 0.065 c 0.614,-0.417 1.425,-1.189 1.389,-2.35 0,0 0.176,-0.738 0.704,-0.562 0.464,0.155 1.049,1.484 -0.571,2.912 h 0.002 l -0.016,0.01 c -0.223,0.197 -0.482,0.392 -0.794,0.59 l -0.016,-0.004 c -0.267,0.192 -0.525,0.387 -0.8,0.575 l -0.165,0.119 h -0.012 c -0.746,0.501 -1.515,0.978 -2.292,1.386 -0.153,0.111 -2.199,1.606 -3.776,3.721 v 0.002 c 0,0 -0.014,0.017 -0.035,0.047 -0.102,0.139 -0.202,0.279 -0.299,0.421 -0.034,0.048 -0.065,0.096 -0.101,0.149 -0.716,1.085 -1.267,2.298 -1.377,3.555 -0.095,1.089 0.162,2.122 0.753,3.093 -0.018,-1.476 -0.053,-2.898 -0.104,-4.215 0.247,-0.613 0.704,-1.645 1.206,-2.283 0.136,2.525 1.191,24.256 0.108,30.346 0.72,1.008 1.249,2.33 0.888,3.867 -0.033,0.094 -1.072,2.533 -1.378,4.383 0,0 -0.921,2.941 -0.91,4.294 l -0.812,-9.055 0.045,-0.13 c 0.284,-0.817 0.508,-1.73 0.705,-2.68 0.46,0.291 0.829,0.93 1.027,1.331 -0.14,0.567 -0.292,1.12 -0.466,1.639 l 0.168,1.875 c 0.353,-1.057 0.702,-1.877 0.733,-1.948 0.187,-0.807 0.033,-1.553 -0.273,-2.211 -0.277,-0.805 -1.023,-1.472 -1.023,-1.472 -0.709,-0.759 -1.432,-1.217 -1.446,-1.226 l -0.31,-0.19 0.109,-0.346 c 0.832,-2.705 1.738,-19.633 1.738,-19.633 0.002,-0.257 0.005,-0.516 0.005,-0.769 -1.273,-1.433 -1.85,-3.029 -1.697,-4.755 0.123,-1.386 0.701,-2.699 1.449,-3.867 -0.05,-0.909 -0.105,-1.737 -0.155,-2.471 -0.062,0.004 -0.126,0.01 -0.183,0.01 l 0.002,0.002 c -0.979,0.079 -1.836,-0.464 -1.42,-1.147 m 2.964,1.99 c 0.374,-0.438 0.754,-0.843 1.117,-1.202 -0.404,0.109 -0.798,0.181 -1.185,0.228 0.022,0.306 0.045,0.635 0.068,0.974 m -0.139,-1.897 c 1.409,-0.168 3.002,-0.882 4.554,-1.816 h -4.711 c 0.041,0.435 0.097,1.056 0.157,1.816 m -1.571,32.478 c 0.211,0.15 0.511,0.383 0.84,0.684 0.514,-3.487 0.607,-9.216 0.575,-12.161 -0.354,3.722 -0.824,9.338 -1.415,11.477"
           style="fill:#000000;fill-opacity:1;fill-rule:nonzero;stroke:none"
           id="path462" />
      </g>
    </g>
  </g>
</svg>
