<?xml version="1.0" encoding="UTF-8" standalone="no"?>
<!-- Created with Inkscape (http://www.inkscape.org/) -->

<svg
   width="21.299664mm"
   height="21.689117mm"
   viewBox="0 0 21.299664 21.689117"
   version="1.1"
   id="svg4419"
   inkscape:version="1.2.2 (b0a8486, 2022-12-01)"
   sodipodi:docname="background-1.svg"
   xmlns:inkscape="http://www.inkscape.org/namespaces/inkscape"
   xmlns:sodipodi="http://sodipodi.sourceforge.net/DTD/sodipodi-0.dtd"
   xmlns="http://www.w3.org/2000/svg"
   xmlns:svg="http://www.w3.org/2000/svg">
  <sodipodi:namedview
     id="namedview4421"
     pagecolor="#ffffff"
     bordercolor="#000000"
     borderopacity="0.25"
     inkscape:showpageshadow="2"
     inkscape:pageopacity="0.0"
     inkscape:pagecheckerboard="0"
     inkscape:deskcolor="#d1d1d1"
     inkscape:document-units="mm"
     showgrid="false"
     inkscape:lockguides="true"
     inkscape:zoom="1.7606504"
     inkscape:cx="207.30976"
     inkscape:cy="-223.21297"
     inkscape:window-width="3440"
     inkscape:window-height="1412"
     inkscape:window-x="0"
     inkscape:window-y="28"
     inkscape:window-maximized="0"
     inkscape:current-layer="layer1" />
  <defs
     id="defs4416">
    <clipPath
       clipPathUnits="userSpaceOnUse"
       id="clipPath2482">
      <path
         d="M 0,0 H 612 V 792 H 0 Z"
         id="path2480" />
    </clipPath>
  </defs>
  <g
     inkscape:label="Layer 1"
     inkscape:groupmode="layer"
     id="layer1"
     transform="translate(-7.1585048,-190.37234)">
    <g
       id="g2476"
       transform="matrix(0.35277777,0,0,-0.35277777,-2.3666361,287.46387)">
      <g
         id="g2478"
         clip-path="url(#clipPath2482)">
        <g
           id="g2484"
           transform="translate(34.8574,658.5449)">
          <path
             d="m 0,-391.50001 c 1.048,0.336 2.179,0.55 3.416,0.55 h 4.442 c 0.591,-0.581 1.217,-1.112 1.862,-1.612 -2.325,0.712 -6.166,1.593 -9.72,1.062 m -6.988,-5.251 c -0.335,-0.442 -0.623,-0.86 -0.869,-1.242 v -9.271 l 1.174,4.368 c -0.742,2.432 -0.555,4.74 -0.305,6.145 m 57.836,-6.065 c 0.944,3.025 0.359,5.933 0.102,6.927 -0.885,1.035 -1.992,2.104 -3.339,2.985 -4.864,2.353 -11.991,0.092 -14.047,-0.653 -3.317,-2.163 -7.184,-3.333 -11.232,-3.333 -4.05,0 -7.918,1.17 -11.235,3.334 -2.061,0.745 -9.202,3.011 -14.064,0.642 -1.338,-0.877 -2.438,-1.939 -3.319,-2.969 -0.255,-0.989 -0.844,-3.906 0.101,-6.933 l 0.023,-0.07 -0.02,-0.069 -1.675,-6.231 v -9.76099 l 1.694,-6.298 -0.023,-0.069 c -0.944,-3.026 -0.359,-5.934 -0.102,-6.928 0.885,-1.035 1.992,-2.103 3.339,-2.984 4.864,-2.354 11.991,-0.092 14.047,0.652 3.317,2.163 7.184,3.333 11.232,3.333 4.05,0 7.918,-1.17 11.235,-3.334 2.061,-0.745 9.203,-3.011 14.064,-0.642 1.338,0.877 2.438,1.939 3.319,2.969 0.255,0.989 0.844,3.906 -0.101,6.934 l -0.023,0.069 0.02,0.069 1.676,6.231 v 9.76099 l -1.695,6.298 z m -8.96,15.377 h 3.167 l -0.721,0.96 h -8.08 c -0.235,0.008 -0.46,0.036 -0.699,0.036 v -0.036 h -4.951 c 0.349,-0.301 0.678,-0.624 0.992,-0.96 h 8.355 c 6.202,-1.372 10.601,-5.303 12.569,-7.396 v -1.834 c -1.984,2.733 -5.706,6.469 -11.273,6.469 H 28.828 c -0.135,0.242 -0.384,0.413 -0.68,0.413 -0.434,0 -0.788,-0.354 -0.788,-0.788 0,-0.435 0.354,-0.788 0.788,-0.788 0.296,0 0.545,0.171 0.68,0.413 h 6.86 c -3.668,-3.341 -8.367,-5.19 -13.356,-5.19 -4.989,0 -9.687,1.849 -13.356,5.19 h 6.859 c 0.135,-0.242 0.384,-0.413 0.68,-0.413 0.434,0 0.788,0.353 0.788,0.788 0,0.434 -0.354,0.788 -0.788,0.788 -0.296,0 -0.545,-0.171 -0.68,-0.413 H 3.416 c -5.568,0 -9.291,-3.738 -11.273,-6.47 v 1.834 c 1.965,2.093 6.358,6.022 12.559,7.395 h 8.363 c 0.314,0.338 0.643,0.66 0.991,0.962 H 9.108 v 0.036 c -0.238,0 -0.464,-0.028 -0.699,-0.036 H 0.328 l -0.722,-0.962 h 3.165 c -5.029,-1.586 -8.695,-4.704 -10.628,-6.678 v 2.531 c 0,0 3.646,2.17 4.576,4.147 h 1.95 l 1.284,1.712 h 7.293 c 2.824,0.357 6.386,1.017 8.071,2.184 0,0 1.198,0.727 1.198,-0.461 0,-0.726 -2.739,-1.348 -4.864,-1.723 h 2.723 c 0.102,0.099 0.238,0.161 0.391,0.161 0.119,0 0.222,-0.045 0.314,-0.109 2.056,1.445 4.553,2.3 7.251,2.3 2.698,0 5.196,-0.855 7.253,-2.3 0.091,0.064 0.195,0.109 0.314,0.109 0.153,0 0.29,-0.062 0.391,-0.161 h 2.723 c -2.125,0.375 -4.864,0.997 -4.864,1.723 0,1.188 1.198,0.461 1.198,0.461 1.685,-1.167 5.247,-1.827 8.071,-2.184 h 7.293 l 1.282,-1.71 h 1.952 c 0.93,-1.979 4.577,-4.147 4.577,-4.147 v -2.532 c -1.935,1.975 -5.603,5.093 -10.632,6.679 m -11.826,0.779 c -0.052,-0.017 -0.106,-0.033 -0.165,-0.033 -0.31,0 -0.562,0.252 -0.562,0.562 0,0.005 0.003,0.009 0.003,0.014 -1.984,1.406 -4.398,2.24 -7.008,2.24 -2.609,0 -5.023,-0.834 -7.006,-2.239 0,-0.005 0.003,-0.01 0.003,-0.015 0,-0.31 -0.252,-0.562 -0.562,-0.562 -0.059,0 -0.113,0.016 -0.166,0.033 -0.299,-0.246 -0.585,-0.507 -0.86,-0.78 h 0.911 c 2.041,1.825 4.726,2.944 7.68,2.944 2.954,0 5.64,-1.119 7.681,-2.944 h 0.91 c -0.274,0.273 -0.56,0.534 -0.859,0.78 m 21.284,-16.236 1.174,-4.364 v 9.267 c -0.247,0.38 -0.533,0.798 -0.868,1.238 0.249,-1.406 0.436,-3.712 -0.306,-6.141 m -10.099,11.946 h -4.445 c -0.59,-0.582 -1.217,-1.112 -1.862,-1.613 2.325,0.711 6.166,1.592 9.722,1.063 -1.048,0.335 -2.178,0.55 -3.415,0.55 M 41.246,-437.18 c 1.237,0 2.368,0.213 3.416,0.549 -3.554,-0.531 -7.394,0.35 -9.72,1.063 0.645,-0.5 1.271,-1.031 1.862,-1.612 z m 10.404,5.8 c 0.335,0.443 0.623,0.861 0.87,1.243 v 9.27 l -1.175,-4.368 c 0.742,-2.432 0.555,-4.739 0.305,-6.145 m 0.87,-0.081 v -1.834 c -1.966,-2.092 -6.359,-6.021 -12.56,-7.394 h -8.363 c -0.314,-0.339 -0.643,-0.66 -0.991,-0.963 h 4.948 v -0.035 c 0.238,0 0.465,0.027 0.699,0.035 h 8.081 l 0.722,0.963 h -3.164 c 5.028,1.586 8.694,4.703 10.628,6.678 v -2.532 c 0,0 -3.647,-2.17 -4.577,-4.146 h -1.95 l -1.284,-1.713 h -7.293 c -2.824,-0.357 -6.386,-1.017 -8.071,-2.184 0,0 -1.198,-0.726 -1.198,0.461 0,0.727 2.739,1.349 4.864,1.723 h -2.723 c -0.101,-0.099 -0.238,-0.16 -0.391,-0.16 -0.119,0 -0.222,0.045 -0.314,0.108 -2.056,-1.444 -4.553,-2.3 -7.251,-2.3 -2.698,0 -5.196,0.856 -7.253,2.3 -0.091,-0.063 -0.195,-0.108 -0.314,-0.108 -0.153,0 -0.289,0.061 -0.391,0.16 h -2.723 c 2.125,-0.374 4.864,-0.996 4.864,-1.723 0,-1.187 -1.198,-0.461 -1.198,-0.461 -1.685,1.167 -5.247,1.827 -8.071,2.184 h -7.293 l -1.282,1.711 h -1.952 c -0.93,1.978 -4.576,4.146 -4.576,4.146 v 2.533 c 1.934,-1.976 5.602,-5.093 10.631,-6.679 h -3.167 l 0.721,-0.961 h 8.08 c 0.236,-0.008 0.46,-0.035 0.699,-0.035 v 0.035 h 4.951 c -0.349,0.302 -0.678,0.624 -0.992,0.961 H 4.711 c -6.202,1.371 -10.601,5.303 -12.568,7.395 v 1.834 c 1.983,-2.733 5.705,-6.468 11.272,-6.468 h 12.419 c 0.135,-0.243 0.384,-0.414 0.68,-0.414 0.434,0 0.788,0.354 0.788,0.789 0,0.434 -0.354,0.788 -0.788,0.788 -0.296,0 -0.545,-0.171 -0.68,-0.413 H 8.975 c 3.668,3.34 8.366,5.189 13.355,5.189 4.989,0 9.688,-1.849 13.357,-5.189 h -6.86 c -0.135,0.242 -0.384,0.413 -0.68,0.413 -0.434,0 -0.788,-0.354 -0.788,-0.788 0,-0.435 0.354,-0.789 0.788,-0.789 0.296,0 0.545,0.171 0.68,0.414 h 12.419 c 5.568,0 9.291,3.737 11.274,6.469 m -21.597,-9.229 h -0.911 c -2.041,-1.825 -4.726,-2.945 -7.68,-2.945 -2.954,0 -5.64,1.12 -7.681,2.945 h -0.91 c 0.274,-0.274 0.56,-0.534 0.859,-0.78 0.052,0.016 0.106,0.033 0.165,0.033 0.31,0 0.562,-0.252 0.562,-0.563 0,0 -0.003,-0.009 -0.003,-0.013 1.984,-1.407 4.398,-2.241 7.008,-2.241 2.609,0 5.023,0.834 7.006,2.24 0,0.004 -0.003,0.009 -0.003,0.009 0,0.316 0.252,0.568 0.562,0.568 0.059,0 0.113,-0.017 0.166,-0.033 0.299,0.246 0.585,0.506 0.86,0.78 m -37.607,15.455 -1.173,4.364 v -9.266 c 0.246,-0.38 0.532,-0.798 0.867,-1.239 -0.249,1.407 -0.436,3.712 0.306,6.141 M 7.86,-437.18 c 0.59,0.582 1.217,1.112 1.862,1.613 -2.325,-0.712 -6.166,-1.593 -9.722,-1.064 1.048,-0.335 2.178,-0.549 3.415,-0.549 z"
             style="fill:#deddde;fill-opacity:1;fill-rule:nonzero;stroke:none"
             id="path2486"
             sodipodi:nodetypes="csccccccccccccscccccccccccccscccccccccccccccccccccscsssccsccssscsccccccccccccccccccsccscscsccscccccccccsscscsscccscccccccccccccscccscccccccccccccccccccccccsccscscsccsccccccccccccccccccscsssccsccssscscccscccsccsccsccccccccccsc" />
        </g>
        <g
           id="g2488"
           transform="translate(395.0342,428.2305)" />
        <g
           id="g2492"
           transform="translate(583.8049,428.2305)" />
      </g>
    </g>
  </g>
</svg>
